<svg width="499" height="401" viewBox="0 0 499 401" fill="none" xmlns="http://www.w3.org/2000/svg">
<g id="Frame 6">
<path id="Rectangle 62" d="M485.918 13.3373H0.207031V244.183H485.918V13.3373Z" fill="#E6E6E6"/>
<path id="Rectangle 75" d="M472.029 33.1327H14.0962V225.734H472.029V33.1327Z" fill="white"/>
<path id="Rectangle 80" d="M485.71 0H0V20.6673H485.71V0Z" fill="#FFC904"/>
<path id="Ellipse 90" d="M15.3339 15.9834C17.4461 15.9834 19.1584 14.2684 19.1584 12.1528C19.1584 10.0372 17.4461 8.32223 15.3339 8.32223C13.2217 8.32223 11.5094 10.0372 11.5094 12.1528C11.5094 14.2684 13.2217 15.9834 15.3339 15.9834Z" fill="white"/>
<path id="Ellipse 91" d="M29.8505 15.9834C31.9627 15.9834 33.675 14.2684 33.675 12.1528C33.675 10.0372 31.9627 8.32223 29.8505 8.32223C27.7383 8.32223 26.026 10.0372 26.026 12.1528C26.026 14.2684 27.7383 15.9834 29.8505 15.9834Z" fill="white"/>
<path id="Ellipse 92" d="M44.3677 15.9834C46.48 15.9834 48.1922 14.2684 48.1922 12.1528C48.1922 10.0372 46.48 8.32223 44.3677 8.32223C42.2555 8.32223 40.5432 10.0372 40.5432 12.1528C40.5432 14.2684 42.2555 15.9834 44.3677 15.9834Z" fill="white"/>
<path id="Vector" d="M342.465 62.4153H277.971V67.2705H342.465V62.4153Z" fill="#E6E6E6"/>
<path id="Vector_2" d="M377.564 76.6687H277.971V81.5239H377.564V76.6687Z" fill="#FFCC00"/>
<path id="Vector_3" d="M360.173 90.2432H279.006V95.0984H360.173V90.2432Z" fill="#E6E6E6"/>
<path id="Vector_4" d="M325.354 105.137H277.971V109.993H325.354V105.137Z" fill="#E6E6E6"/>
<path id="Vector_5" d="M349.485 119.686H277.971V124.541H349.485V119.686Z" fill="#FFCC00"/>
<path id="Vector_6" d="M256.473 60.888H248.575V68.7978H256.473V60.888Z" fill="#E6E6E6"/>
<path id="Vector_7" d="M256.473 75.1414H248.575V83.0512H256.473V75.1414Z" fill="#FFCC00"/>
<path id="Vector_8" d="M256.473 88.7159H248.575V96.6257H256.473V88.7159Z" fill="#E6E6E6"/>
<path id="Vector_9" d="M256.473 103.61H248.575V111.52H256.473V103.61Z" fill="#E6E6E6"/>
<path id="Vector_10" d="M256.473 118.159H248.575V126.069H256.473V118.159Z" fill="#FFCC00"/>
<path id="Vector_11" d="M342.465 134.326H277.971V139.181H342.465V134.326Z" fill="#E6E6E6"/>
<path id="Vector_12" d="M377.564 148.579H277.971V153.434H377.564V148.579Z" fill="#FFCC00"/>
<path id="Vector_13" d="M360.173 162.154H279.006V167.009H360.173V162.154Z" fill="#E6E6E6"/>
<path id="Vector_14" d="M325.354 177.048H277.971V181.903H325.354V177.048Z" fill="#E6E6E6"/>
<path id="Vector_15" d="M349.485 191.596H277.971V196.452H349.485V191.596Z" fill="#E6E6E6"/>
<path id="Vector_16" d="M256.473 132.798H248.575V140.708H256.473V132.798Z" fill="#E6E6E6"/>
<path id="Vector_17" d="M256.473 147.052H248.575V154.962H256.473V147.052Z" fill="#FFCC00"/>
<path id="Vector_18" d="M256.473 160.626H248.575V168.536H256.473V160.626Z" fill="#E6E6E6"/>
<path id="Vector_19" d="M256.473 175.521H248.575V183.43H256.473V175.521Z" fill="#E6E6E6"/>
<path id="Vector_20" d="M256.473 190.069H248.575V197.979H256.473V190.069Z" fill="#E6E6E6"/>
<path id="Vector_21" d="M138.439 172.41H73.9446V177.266H138.439V172.41Z" fill="#3F3D56"/>
<path id="Vector_22" d="M146.481 185.026H65.3152V189.882H146.481V185.026Z" fill="#3F3D56"/>
<path id="Vector_23" d="M148.11 111.164C148.107 118.461 146.215 125.633 142.618 131.979C139.021 138.325 133.843 143.628 127.588 147.37C121.334 151.113 114.217 153.166 106.933 153.331C99.6493 153.496 92.4474 151.765 86.0307 148.309L86.0225 148.301C79.4682 144.764 73.967 139.551 70.0796 133.191C66.1922 126.831 64.0574 119.553 63.8929 112.098C63.7283 104.643 65.5398 97.2779 69.1429 90.7525C72.7459 84.2271 78.0116 78.7749 84.4035 74.9517C90.7954 71.1284 98.085 69.0705 105.529 68.9879C112.974 68.9053 120.307 70.8008 126.782 74.4812C133.257 78.1617 138.642 83.4956 142.389 89.9395C146.135 96.3833 148.109 103.707 148.11 111.164Z" fill="#3F3D56"/>
<path id="Vector_24" d="M106.213 109.116C112.536 109.116 117.661 103.983 117.661 97.6501C117.661 91.3177 112.536 86.1842 106.213 86.1842C99.8909 86.1842 94.7656 91.3177 94.7656 97.6501C94.7656 103.983 99.8909 109.116 106.213 109.116Z" fill="white"/>
<path id="Vector_25" d="M125.76 132.807C112.962 137.307 99.0078 137.253 86.2453 132.654L86.2371 132.648L94.7655 115.787H117.661L125.76 132.807Z" fill="white"/>
<path id="Vector_26" d="M452.916 392.322H444.453L440.427 359.625L452.918 359.626L452.916 392.322Z" fill="#FFB7B7"/>
<path id="Vector_27" d="M455.075 400.54L427.785 400.539V400.193C427.785 397.371 428.905 394.666 430.896 392.67C432.888 390.675 435.59 389.554 438.407 389.554H438.408L455.076 389.555L455.075 400.54Z" fill="#2F2E41"/>
<path id="Vector_28" d="M473.588 392.322H482.052L486.078 359.625L473.587 359.626L473.588 392.322Z" fill="#FFB7B7"/>
<path id="Vector_29" d="M471.429 389.555L488.097 389.554H488.098C490.915 389.554 493.616 390.675 495.608 392.67C497.6 394.665 498.719 397.371 498.72 400.193V400.539L471.43 400.54L471.429 389.555Z" fill="#2F2E41"/>
<path id="Vector_30" d="M451.036 136.805C454.671 129.477 451.687 120.585 444.37 116.944C437.054 113.303 428.176 116.292 424.54 123.62C420.905 130.948 423.889 139.841 431.206 143.482C438.523 147.123 447.401 144.133 451.036 136.805Z" fill="#FFB7B7"/>
<path id="Vector_31" d="M426.895 232.14C426.895 232.14 422.224 251.635 424.559 260.993C426.895 270.35 433.902 334.295 433.902 334.295L438.574 384.982L457.259 386.542L454.924 327.277L457.259 275.809L470.495 325.717V385.159L490.312 385.939L490.738 308.561C490.738 308.561 492.295 247.736 482.173 239.938C472.052 232.14 470.495 230.58 470.495 230.58L426.895 232.14Z" fill="#2F2E41"/>
<path id="Vector_32" d="M455.103 146.361L472.831 155.718L475.166 236.819C475.166 236.819 465.045 230.58 449.474 238.378C433.902 246.176 423.781 240.718 423.781 240.718L433.124 205.626L429.231 158.838L434.799 153.776L455.103 146.361Z" fill="#CBCBCB"/>
<path id="Vector_33" d="M434.801 152.3L431.567 154.939C431.567 154.939 411.324 165.076 410.545 172.094L424.559 210.305C424.559 210.305 428.452 218.883 425.338 222.002C422.224 225.121 419.109 232.92 419.888 236.819C420.667 240.718 415.217 257.094 421.445 257.094C427.674 257.094 442.466 219.663 441.688 204.846C440.909 190.03 440.37 151.221 434.801 152.3Z" fill="#2F2E41"/>
<path id="Vector_34" d="M448.41 147.239L455.541 146.051C455.541 146.051 482.012 153.069 485.905 164.766L475.005 192.06C475.005 192.06 482.791 241.967 480.455 241.967H478.12C478.12 241.967 484.348 246.646 480.455 248.206C476.562 249.766 467.22 262.242 464.884 256.784C462.548 251.325 448.534 186.601 450.091 172.564C451.648 158.528 447.027 148.71 448.41 147.239Z" fill="#2F2E41"/>
<path id="Vector_35" d="M451.505 115.705L452.198 114.308L448.711 112.573C448.711 112.573 444.866 106.306 437.906 108.067C430.947 109.828 427.816 110.883 427.816 110.883L424.338 112.635L426.084 114.374L422.953 115.429L425.044 116.47L422.611 117.871L423.921 125.053C423.921 125.053 426.097 119.606 430.28 121.687C434.464 123.769 442.116 120.611 442.116 120.611L448.764 133.498C448.764 133.498 450.136 128.98 452.581 130.185C452.581 130.185 458.828 120.22 451.505 115.705Z" fill="#2F2E41"/>
<path id="Vector_36" d="M473.16 252.542C472.775 251.601 472.601 250.587 472.65 249.572C472.699 248.557 472.969 247.564 473.442 246.665C473.915 245.766 474.58 244.981 475.388 244.367C476.197 243.753 477.13 243.323 478.122 243.109L481.119 218.583L490.884 226.902L486.541 248.917C486.79 250.61 486.41 252.335 485.473 253.767C484.536 255.198 483.108 256.235 481.458 256.682C479.809 257.129 478.053 256.954 476.524 256.191C474.994 255.428 473.797 254.129 473.16 252.542Z" fill="#FFB7B7"/>
<path id="Vector_37" d="M431.393 250.854C431.676 249.878 431.741 248.851 431.585 247.847C431.429 246.842 431.055 245.884 430.49 245.04C429.924 244.197 429.181 243.487 428.312 242.962C427.443 242.437 426.469 242.109 425.46 242.001L419.884 217.932L411.054 227.241L417.703 248.67C417.635 250.38 418.196 252.056 419.279 253.38C420.362 254.703 421.892 255.583 423.58 255.852C425.267 256.121 426.994 255.761 428.434 254.84C429.874 253.919 430.927 252.5 431.393 250.854Z" fill="#FFB7B7"/>
<path id="Vector_38" d="M473.537 158.411C473.537 158.411 483.658 154.512 486.772 166.209C489.887 177.907 493.779 201.301 493.779 201.301C493.973 214.31 493.282 214.31 493.779 227.035L491.444 238.732L478.208 237.172L478.785 207.395L471.979 177.127L473.537 158.411Z" fill="#2F2E41"/>
<path id="Vector_39" d="M417.552 167.415L412.753 167.93C412.753 167.93 408.209 171.315 408.209 179.113C408.209 186.911 407.431 210.305 407.431 210.305C407.431 210.305 406.989 210.852 410.545 230.58C412.278 240.196 415.273 244.733 415.273 244.733L424.938 235.744L423.781 212.644L426.895 200.167L417.552 167.415Z" fill="#2F2E41"/>
</g>
</svg>
